<mxfile host="Electron" modified="2024-08-21T14:18:22.242Z" agent="Mozilla/5.0 (Windows NT 10.0; Win64; x64) AppleWebKit/537.36 (KHTML, like Gecko) draw.io/21.6.5 Chrome/114.0.5735.243 Electron/25.3.1 Safari/537.36" etag="yJBkOGNhz0FoLzBkcaTM" version="21.6.5" type="device">
  <diagram id="oxPRHDZ6miO7f9ZsIA0N" name="Page-1">
    <mxGraphModel dx="1050" dy="621" grid="1" gridSize="10" guides="1" tooltips="1" connect="1" arrows="1" fold="1" page="1" pageScale="1" pageWidth="850" pageHeight="1100" math="0" shadow="0">
      <root>
        <mxCell id="0" />
        <mxCell id="1" parent="0" />
        <mxCell id="THmwH9JPC7RiWb7a8U4U-1" value="" style="shape=image;aspect=fixed;image=data:image/svg+xml,PD94bWwgdmVyc2lvbj0iMS4wIiBlbmNvZGluZz0iVVRGLTgiIHN0YW5kYWxvbmU9Im5vIj8+CjwhLS0gQ3JlYXRlZCB3aXRoIElua3NjYXBlIChodHRwOi8vd3d3Lmlua3NjYXBlLm9yZy8pIC0tPgo8c3ZnCiAgICB4bWxuczppbmtzY2FwZT0iaHR0cDovL3d3dy5pbmtzY2FwZS5vcmcvbmFtZXNwYWNlcy9pbmtzY2FwZSIKICAgIHhtbG5zOnJkZj0iaHR0cDovL3d3dy53My5vcmcvMTk5OS8wMi8yMi1yZGYtc3ludGF4LW5zIyIKICAgIHhtbG5zPSJodHRwOi8vd3d3LnczLm9yZy8yMDAwL3N2ZyIKICAgIHhtbG5zOmNjPSJodHRwOi8vY3JlYXRpdmVjb21tb25zLm9yZy9ucyMiCiAgICB4bWxuczpkYz0iaHR0cDovL3B1cmwub3JnL2RjL2VsZW1lbnRzLzEuMS8iCiAgICB4bWxuczpzb2RpcG9kaT0iaHR0cDovL3NvZGlwb2RpLnNvdXJjZWZvcmdlLm5ldC9EVEQvc29kaXBvZGktMC5kdGQiCiAgICB4bWxuczpzdmc9Imh0dHA6Ly93d3cudzMub3JnLzIwMDAvc3ZnIgogICAgeG1sbnM6bnMxPSJodHRwOi8vc296aS5iYWllcm91Z2UuZnIiCiAgICB4bWxuczp4bGluaz0iaHR0cDovL3d3dy53My5vcmcvMTk5OS94bGluayIKICAgIGlkPSJzdmcyIgogICAgc29kaXBvZGk6ZG9jbmFtZT0iU3RvcFNpZ24tbm9mb250LnN2ZyIKICAgIHZpZXdCb3g9IjAgMCAyNjkuOTcgMjY5Ljk3IgogICAgdmVyc2lvbj0iMS4xIgogICAgaW5rc2NhcGU6dmVyc2lvbj0iMC40OC4yIHI5ODE5IgogID4KICA8dGl0bGUKICAgICAgaWQ9InRpdGxlMzkwNiIKICAgID5TdG9wIFNpZ248L3RpdGxlCiAgPgogIDxzb2RpcG9kaTpuYW1lZHZpZXcKICAgICAgaWQ9ImJhc2UiCiAgICAgIGZpdC1tYXJnaW4tbGVmdD0iMC4xIgogICAgICBpbmtzY2FwZTp6b29tPSIyLjIzMDQxNjgiCiAgICAgIGJvcmRlcm9wYWNpdHk9IjEuMCIKICAgICAgaW5rc2NhcGU6Y3VycmVudC1sYXllcj0ibGF5ZXIxIgogICAgICBpbmtzY2FwZTpjeD0iMTM0Ljk4NTQyIgogICAgICBpbmtzY2FwZTpjeT0iMTM0Ljk4NTQzIgogICAgICBpbmtzY2FwZTp3aW5kb3ctbWF4aW1pemVkPSIxIgogICAgICBzaG93Z3JpZD0iZmFsc2UiCiAgICAgIGZpdC1tYXJnaW4tcmlnaHQ9IjAuMSIKICAgICAgdW5pdHM9ImluIgogICAgICBpbmtzY2FwZTpkb2N1bWVudC11bml0cz0iaW4iCiAgICAgIGJvcmRlcmNvbG9yPSIjNjY2NjY2IgogICAgICBpbmtzY2FwZTp3aW5kb3cteD0iMCIKICAgICAgaW5rc2NhcGU6d2luZG93LXk9IjI0IgogICAgICBmaXQtbWFyZ2luLWJvdHRvbT0iMC4xIgogICAgICBpbmtzY2FwZTp3aW5kb3ctd2lkdGg9IjEyNzgiCiAgICAgIGlua3NjYXBlOnBhZ2VvcGFjaXR5PSIwLjAiCiAgICAgIGlua3NjYXBlOnBhZ2VzaGFkb3c9IjIiCiAgICAgIHBhZ2Vjb2xvcj0iI2ZmZmZmZiIKICAgICAgaW5rc2NhcGU6d2luZG93LWhlaWdodD0iNzQ3IgogICAgICBmaXQtbWFyZ2luLXRvcD0iMC4xIgogIC8+CiAgPGcKICAgICAgaWQ9ImxheWVyMSIKICAgICAgaW5rc2NhcGU6bGFiZWw9IkxheWVyIDEiCiAgICAgIGlua3NjYXBlOmdyb3VwbW9kZT0ibGF5ZXIiCiAgICAgIHRyYW5zZm9ybT0idHJhbnNsYXRlKC0zNjAuMDEgLTUzNC44OCkiCiAgICA+CiAgICA8ZwogICAgICAgIGlkPSJnMzAzMSIKICAgICAgPgogICAgICA8Zmxvd1Jvb3QKICAgICAgICAgIGlkPSJmbG93Um9vdDI5ODIiCiAgICAgICAgICBzdHlsZT0iZm9udC1zaXplOjEwMi42cHg7Zm9udC1mYW1pbHk6U3RhbmRhcmQgU3ltYm9scyBMO2ZpbGw6IzAwMDAwMDtsZXR0ZXItc3BhY2luZzowcHg7bGluZS1oZWlnaHQ6MTI1JTt3b3JkLXNwYWNpbmc6MHB4IgogICAgICAgICAgeG1sOnNwYWNlPSJwcmVzZXJ2ZSIKICAgICAgICAgIHRyYW5zZm9ybT0idHJhbnNsYXRlKDAgMjg3LjM2KSIKICAgICAgICA+CiAgICAgICAgPGZsb3dSZWdpb24KICAgICAgICAgICAgaWQ9ImZsb3dSZWdpb24yOTg0IgogICAgICAgICAgPgogICAgICAgICAgPHJlY3QKICAgICAgICAgICAgICBpZD0icmVjdDI5ODYiCiAgICAgICAgICAgICAgeT0iMTQyLjkzIgogICAgICAgICAgICAgIHg9IjI0Ni4zOCIKICAgICAgICAgICAgICB3aWR0aD0iNDA1LjY0IgogICAgICAgICAgICAgIGhlaWdodD0iNDE1LjE3IgogICAgICAgICAgLz4KICAgICAgICA8L2Zsb3dSZWdpb24KICAgICAgICA+CiAgICAgICAgPGZsb3dQYXJhCiAgICAgICAgICAgIGlkPSJmbG93UGFyYTI5ODgiCiAgICAgICAgICA+U1MuTy5QLkEuU3RvPC9mbG93UGFyYQogICAgICAgID4KICAgICAgPC9mbG93Um9vdAogICAgICA+CiAgICAgIDxwYXRoCiAgICAgICAgICBpZD0icGF0aDMwMzAiCiAgICAgICAgICBzdHlsZT0iZmlsbDojZTgwODA4IgogICAgICAgICAgc29kaXBvZGk6dHlwZT0ic3RhciIKICAgICAgICAgIGQ9Im00NDMuMzYgNDIwLjctODIuNzU3IDYzLjUwMi0xMDMuNDItMTMuNjE2LTYzLjUwMi04Mi43NTcgMTMuNjE2LTEwMy40MiA4Mi43NTctNjMuNTAyIDEwMy40MiAxMy42MTYgNjMuNTAyIDgyLjc1N3oiCiAgICAgICAgICBzb2RpcG9kaTpyMT0iMTM2LjI5MTA1IgogICAgICAgICAgaW5rc2NhcGU6ZmxhdHNpZGVkPSJ0cnVlIgogICAgICAgICAgdHJhbnNmb3JtPSJtYXRyaXgoLjk5MTI3IC0uMTMxODQgLjEzMTg0IC45OTEyNyAxMjYuMDMgMzYzLjI4KSIKICAgICAgICAgIHNvZGlwb2RpOmFyZzI9IjAuOTE2Mjk3ODYiCiAgICAgICAgICBzb2RpcG9kaTphcmcxPSIwLjUyMzU5ODc4IgogICAgICAgICAgaW5rc2NhcGU6cmFuZG9taXplZD0iMCIKICAgICAgICAgIHNvZGlwb2RpOmN5PSIzNTIuNTUzMzgiCiAgICAgICAgICBzb2RpcG9kaTpjeD0iMzI1LjMyOTE5IgogICAgICAgICAgaW5rc2NhcGU6cm91bmRlZD0iMCIKICAgICAgICAgIHNvZGlwb2RpOnIyPSIxMjUuOTE2NSIKICAgICAgICAgIHNvZGlwb2RpOnNpZGVzPSI4IgogICAgICAvPgogICAgICA8cGF0aAogICAgICAgICAgaWQ9InBhdGgzMDM4IgogICAgICAgICAgc3R5bGU9ImZpbGw6I2ZmZmZmZiIKICAgICAgICAgIHNvZGlwb2RpOnR5cGU9Imlua3NjYXBlOm9mZnNldCIKICAgICAgICAgIGQ9Im0yOTEuMzEgMjI1LjU5LTc5LjgxMiA2MS4yNS0xMy4xMjUgOTkuNzE5IDYxLjI1IDc5Ljg0NCA5OS43MTkgMTMuMDk0IDc5Ljg0NC02MS4yNSAxMy4wOTQtOTkuNzE5LTYxLjI1LTc5LjgxMi05OS43MTktMTMuMTI1eiIKICAgICAgICAgIGlua3NjYXBlOm9yaWdpbmFsPSJNIDI5MC4wNjI1IDIyMC45MDYyNSBMIDIwNy4zMTI1IDI4NC40MDYyNSBMIDE5My42ODc1IDM4Ny44MTI1IEwgMjU3LjE4NzUgNDcwLjU5Mzc1IEwgMzYwLjU5Mzc1IDQ4NC4xODc1IEwgNDQzLjM3NSA0MjAuNjg3NSBMIDQ1Ni45Njg3NSAzMTcuMjgxMjUgTCAzOTMuNDY4NzUgMjM0LjUzMTI1IEwgMjkwLjA2MjUgMjIwLjkwNjI1IHogIgogICAgICAgICAgdHJhbnNmb3JtPSJtYXRyaXgoLjk5MTI3IC0uMTMxODQgLjEzMTg0IC45OTEyNyAxMjYuMDIgMzYzLjI3KSIKICAgICAgICAgIGlua3NjYXBlOnJhZGl1cz0iLTQuNDkwMDA1NSIKICAgICAgLz4KICAgICAgPHBhdGgKICAgICAgICAgIGlkPSJwYXRoMzA0MiIKICAgICAgICAgIHN0eWxlPSJmaWxsOiNlODA4MDgiCiAgICAgICAgICBzb2RpcG9kaTp0eXBlPSJpbmtzY2FwZTpvZmZzZXQiCiAgICAgICAgICBkPSJtMjkyLjQ0IDIyOS44NC03Ny4xMjUgNTkuMTg4LTEyLjY4OCA5Ni40MDYgNTkuMTg4IDc3LjE1NiA5Ni40MDYgMTIuNjU2IDc3LjE1Ni01OS4xODggMTIuNjU2LTk2LjQwNi01OS4xODgtNzcuMTI1LTk2LjQwNi0xMi42ODh6IgogICAgICAgICAgaW5rc2NhcGU6b3JpZ2luYWw9Ik0gMjkwLjA2MjUgMjIwLjkwNjI1IEwgMjA3LjMxMjUgMjg0LjQwNjI1IEwgMTkzLjY4NzUgMzg3LjgxMjUgTCAyNTcuMTg3NSA0NzAuNTkzNzUgTCAzNjAuNTkzNzUgNDg0LjE4NzUgTCA0NDMuMzc1IDQyMC42ODc1IEwgNDU2Ljk2ODc1IDMxNy4yODEyNSBMIDM5My40Njg3NSAyMzQuNTMxMjUgTCAyOTAuMDYyNSAyMjAuOTA2MjUgeiAiCiAgICAgICAgICB0cmFuc2Zvcm09Im1hdHJpeCguOTkxMjcgLS4xMzE4NCAuMTMxODQgLjk5MTI3IDEyNi4wMiAzNjMuMjcpIgogICAgICAgICAgaW5rc2NhcGU6cmFkaXVzPSItOC41Mjg5MzkyIgogICAgICAvPgogICAgICA8ZwogICAgICAgICAgaWQ9ImZsb3dSb290MzAwNCIKICAgICAgICAgIHN0eWxlPSJmaWxsOiNmZmZmZmYiCiAgICAgICAgICB0cmFuc2Zvcm09InRyYW5zbGF0ZSgyMDUuNTcgNDIxLjk0KSIKICAgICAgICA+CiAgICAgICAgPHBhdGgKICAgICAgICAgICAgaWQ9InBhdGgzMDI4IgogICAgICAgICAgICBzdHlsZT0iIgogICAgICAgICAgICBkPSJtMzQ1Ljg0IDIwNy4zN2gyMS4yNDJjNS43NDQ2IDAuMDAwMDggMTAuMTUzIDAuNDUwOTcgMTMuMjI2IDEuMzUyNyAzLjEwNjEgMC45MDE4NSA1LjQyNzMgMi4yMDQ0IDYuOTYzNyAzLjkwNzcgMS41Njk3IDEuNzAzNCAyLjYyMTggMy43NzQyIDMuMTU2MiA2LjIxMjIgMC41Njc3NCAyLjQwNDggMC44NTE2MyA2LjE0NTUgMC44NTE2OCAxMS4yMjJ2Ny4wNjM5Yy0wLjAwMDA1IDUuMTc2OS0wLjUzNDQzIDguOTUxLTEuNjAzMiAxMS4zMjItMS4wNjg4IDIuMzcxNC0zLjAzOTQgNC4xOTE2LTUuOTExNiA1LjQ2MDgtMi44MzkgMS4yNjkyLTYuNTYzIDEuOTAzOC0xMS4xNzIgMS45MDM4aC01LjY2MTJ2MzIuNjY0aC0yMS4wOTJ2LTgxLjExbTIxLjA5MiAxMy44Nzd2MjAuNjQxYzAuNjAxMTYgMC4wMzM0IDEuMTE4OCAwLjA1MDIgMS41NTMxIDAuMDUwMSAxLjkzNzEgMC4wMDAwNSAzLjI3MzEtMC40Njc1NCA0LjAwNzktMS40MDI4IDAuNzY4MTUtMC45Njg1MyAxLjE1MjItMi45NTU4IDEuMTUyMy01Ljk2MTh2LTYuNjYzMWMtMC4wMDAwMy0yLjc3MjEtMC40MzQyMi00LjU3NTYtMS4zMDI2LTUuNDEwNy0wLjg2ODQxLTAuODM0OTItMi42NzItMS4yNTI0LTUuNDEwNy0xLjI1MjVtLTI5LjAwNyAzMy42MTZjLTAuMDAwMDUgOC4xNDk0LTAuMjAwNDUgMTMuOTI3LTAuNjAxMTggMTcuMzM0LTAuMzY3NDUgMy4zNzMzLTEuNTY5OCA2LjQ2MjgtMy42MDcxIDkuMjY4My0yLjAwNCAyLjgwNTUtNC43MjYgNC45NTk4LTguMTY2MSA2LjQ2MjctMy40NDAyIDEuNTAzLTcuNDQ4IDIuMjU0NC0xMi4wMjQgMi4yNTQ0LTQuMzQxOSAwLTguMjQ5Ni0wLjcwMTM5LTExLjcyMy0yLjEwNDItMy40NDAxLTEuNDM2Mi02LjIxMjMtMy41NzM3LTguMzE2NC02LjQxMjYtMi4xMDQyLTIuODM4OS0zLjM1NjYtNS45MjgzLTMuNzU3NC05LjI2ODMtMC40MDA4LTMuMzM5OS0wLjYwMTE5LTkuMTg0OC0wLjYwMTE5LTE3LjUzNXYtMTMuODc3YzAtOC4xNDk0IDAuMTgzNjktMTMuOTExIDAuNTUxMDktMTcuMjg0IDAuNDAwNzgtMy40MDY2IDEuNjAzMi02LjUxMjggMy42MDcxLTkuMzE4NCAyLjAzNzMtMi44MDU1IDQuNzc2MS00Ljk1OTcgOC4yMTYyLTYuNDYyNyAzLjQ0MDEtMS41MDI5IDcuNDQ4LTIuMjU0NCAxMi4wMjQtMi4yNTQ0IDQuMzQxOSAwLjAwMDA5IDguMjMyOSAwLjcxODE3IDExLjY3MyAyLjE1NDIgMy40NzM1IDEuNDAyOCA2LjI2MjMgMy41MjM3IDguMzY2NSA2LjM2MjUgMi4xMDQxIDIuODM5IDMuMzU2NiA1LjkyODQgMy43NTc0IDkuMjY4MyAwLjQwMDczIDMuMzQgMC42MDExMyA5LjE4NDggMC42MDExOCAxNy41MzV2MTMuODc3bS0yMS4wOTItMjYuNjUzYy0wLjAwMDAzLTMuNzc0LTAuMjE3MTItNi4xNzg4LTAuNjUxMjgtNy4yMTQyLTAuNDAwODItMS4wNjg3LTEuMjUyNS0xLjYwMzEtMi41NTUtMS42MDMyLTEuMTAyMiAwLjAwMDA3LTEuOTUzOSAwLjQzNDI2LTIuNTU1IDEuMzAyNi0wLjU2NzgxIDAuODM1MDUtMC44NTE3MSAzLjM0LTAuODUxNjggNy41MTQ4djM3Ljg3NWMtMC4wMDAwMyA0LjcwOTMgMC4xODM2NyA3LjYxNSAwLjU1MTA5IDguNzE3MiAwLjQwMDc2IDEuMTAyMiAxLjMwMjUgMS42NTMzIDIuNzA1MyAxLjY1MzMgMS40MzYxIDAuMDAwMDEgMi4zNTQ2LTAuNjM0NTcgMi43NTU0LTEuOTAzOCAwLjQwMDc2LTEuMjY5MiAwLjYwMTE1LTQuMjkxOCAwLjYwMTE4LTkuMDY3OXYtMzcuMjczbS0zMS45MTMtMjAuODQxdjE2LjIzMmgtMTIuNTI1djY0Ljg3OGgtMjEuMDkydi02NC44NzhoLTEyLjQ3NXYtMTYuMjMyaDQ2LjA5MW0tNTAuOSAyNC41NDhoLTE5LjU4OXYtNi4wMTE4Yy0wLjAwMDAzLTIuODA1NS0wLjI1MDUyLTQuNTkyMy0wLjc1MTQ4LTUuMzYwNi0wLjUwMTAxLTAuNzY4MTEtMS4zMzYtMS4xNTIyLTIuNTA0OS0xLjE1MjMtMS4yNjkyIDAuMDAwMDctMi4yMzc4IDAuNTE3NzYtMi45MDU3IDEuNTUzMS0wLjYzNDYxIDEuMDM1NC0wLjk1MTkgMi42MDUyLTAuOTUxODggNC43MDkzLTAuMDAwMDIgMi43MDU0IDAuMzY3MzcgNC43NDI3IDEuMTAyMiA2LjExMiAwLjcwMTM2IDEuMzY5NCAyLjY4ODYgMy4wMjI3IDUuOTYxOCA0Ljk1OTggOS4zODUxIDUuNTc3NyAxNS4yOTcgMTAuMTUzIDE3LjczNSAxMy43MjcgMi40MzgxIDMuNTczOCAzLjY1NzIgOS4zMzUxIDMuNjU3MiAxNy4yODQtMC4wMDAwNSA1Ljc3ODEtMC42ODQ3MyAxMC4wMzYtMi4wNTQgMTIuNzc1LTEuMzM2IDIuNzM4Ny0zLjk0MTIgNS4wNDMzLTcuODE1NCA2LjkxMzYtMy44NzQzIDEuODM3LTguMzgzMiAyLjc1NTQtMTMuNTI3IDIuNzU1NC01LjY0NDUgMC0xMC40NzEtMS4wNjg4LTE0LjQ3OS0zLjIwNjMtMy45NzQ1LTIuMTM3Ni02LjU3OTYtNC44NTk2LTcuODE1NC04LjE2NjFzLTEuODUzNy03Ljk5OTEtMS44NTM3LTE0LjA3OHYtNS4zMTA1aDE5LjU4OXY5Ljg2OTVjLTAuMDAwMDMgMy4wMzkzIDAuMjY3MTcgNC45OTMyIDAuODAxNTggNS44NjE2IDAuNTY3NzYgMC44NjgzOSAxLjU1MyAxLjMwMjYgMi45NTU4IDEuMzAyNiAxLjQwMjcgMC4wMDAwMSAyLjQzODEtMC41NTEwOCAzLjEwNjEtMS42NTMzIDAuNzAxMzUtMS4xMDIyIDEuMDUyLTIuNzM4NyAxLjA1MjEtNC45MDk3LTAuMDAwMDMtNC43NzYxLTAuNjUxMzEtNy44OTg5LTEuOTUzOC05LjM2ODUtMS4zMzYtMS40Njk1LTQuNjI1OC0zLjkyNDQtOS44Njk1LTcuMzY0NS01LjI0MzctMy40NzM1LTguNzE3Mi01Ljk5NTEtMTAuNDIxLTcuNTY0OS0xLjcwMzQtMS41Njk3LTMuMTIyOC0zLjc0MDctNC4yNTg0LTYuNTEyOC0xLjEwMjItMi43NzIxLTEuNjUzMy02LjMxMjQtMS42NTMzLTEwLjYyMSAwLTYuMjEyMiAwLjc4NDg4LTEwLjc1NCAyLjM1NDYtMTMuNjI3IDEuNjAzMi0yLjg3MjMgNC4xNzQ5LTUuMTEgNy43MTUyLTYuNzEzMiAzLjU0MDMtMS42MzY1IDcuODE1NC0yLjQ1NDggMTIuODI1LTIuNDU0OCA1LjQ3NzQgMC4wMDAwOSAxMC4xMzcgMC44ODUxNiAxMy45NzggMi42NTUyIDMuODc0MyAxLjc3MDIgNi40MjkzIDQuMDA4IDcuNjY1MSA2LjcxMzIgMS4yNjkxIDIuNjcyIDEuOTAzNyA3LjIzMSAxLjkwMzggMTMuNjc3djMuMjA2MyIKICAgICAgICAvPgogICAgICA8L2cKICAgICAgPgogICAgPC9nCiAgICA+CiAgPC9nCiAgPgogIDxtZXRhZGF0YQogICAgPgogICAgPHJkZjpSREYKICAgICAgPgogICAgICA8Y2M6V29yawogICAgICAgID4KICAgICAgICA8ZGM6Zm9ybWF0CiAgICAgICAgICA+aW1hZ2Uvc3ZnK3htbDwvZGM6Zm9ybWF0CiAgICAgICAgPgogICAgICAgIDxkYzp0eXBlCiAgICAgICAgICAgIHJkZjpyZXNvdXJjZT0iaHR0cDovL3B1cmwub3JnL2RjL2RjbWl0eXBlL1N0aWxsSW1hZ2UiCiAgICAgICAgLz4KICAgICAgICA8Y2M6bGljZW5zZQogICAgICAgICAgICByZGY6cmVzb3VyY2U9Imh0dHA6Ly9jcmVhdGl2ZWNvbW1vbnMub3JnL2xpY2Vuc2VzL3B1YmxpY2RvbWFpbi8iCiAgICAgICAgLz4KICAgICAgICA8ZGM6cHVibGlzaGVyCiAgICAgICAgICA+CiAgICAgICAgICA8Y2M6QWdlbnQKICAgICAgICAgICAgICByZGY6YWJvdXQ9Imh0dHA6Ly9vcGVuY2xpcGFydC5vcmcvIgogICAgICAgICAgICA+CiAgICAgICAgICAgIDxkYzp0aXRsZQogICAgICAgICAgICAgID5PcGVuY2xpcGFydDwvZGM6dGl0bGUKICAgICAgICAgICAgPgogICAgICAgICAgPC9jYzpBZ2VudAogICAgICAgICAgPgogICAgICAgIDwvZGM6cHVibGlzaGVyCiAgICAgICAgPgogICAgICAgIDxkYzp0aXRsZQogICAgICAgICAgPlN0b3AgU2lnbjwvZGM6dGl0bGUKICAgICAgICA+CiAgICAgICAgPGRjOmRhdGUKICAgICAgICAgID4yMDEyLTAxLTE1VDE2OjM4OjQ2PC9kYzpkYXRlCiAgICAgICAgPgogICAgICAgIDxkYzpkZXNjcmlwdGlvbgogICAgICAgICAgPlN0b3AgU2lnbjwvZGM6ZGVzY3JpcHRpb24KICAgICAgICA+CiAgICAgICAgPGRjOnNvdXJjZQogICAgICAgICAgPmh0dHBzOi8vb3BlbmNsaXBhcnQub3JnL2RldGFpbC8xNjcwOTMvc3RvcC1zaWduLWJ5LWRhdmlkYmx5b25zPC9kYzpzb3VyY2UKICAgICAgICA+CiAgICAgICAgPGRjOmNyZWF0b3IKICAgICAgICAgID4KICAgICAgICAgIDxjYzpBZ2VudAogICAgICAgICAgICA+CiAgICAgICAgICAgIDxkYzp0aXRsZQogICAgICAgICAgICAgID5kYXZpZGJseW9uczwvZGM6dGl0bGUKICAgICAgICAgICAgPgogICAgICAgICAgPC9jYzpBZ2VudAogICAgICAgICAgPgogICAgICAgIDwvZGM6Y3JlYXRvcgogICAgICAgID4KICAgICAgICA8ZGM6c3ViamVjdAogICAgICAgICAgPgogICAgICAgICAgPHJkZjpCYWcKICAgICAgICAgICAgPgogICAgICAgICAgICA8cmRmOmxpCiAgICAgICAgICAgICAgPlN0b3AgU2lnbjwvcmRmOmxpCiAgICAgICAgICAgID4KICAgICAgICAgIDwvcmRmOkJhZwogICAgICAgICAgPgogICAgICAgIDwvZGM6c3ViamVjdAogICAgICAgID4KICAgICAgPC9jYzpXb3JrCiAgICAgID4KICAgICAgPGNjOkxpY2Vuc2UKICAgICAgICAgIHJkZjphYm91dD0iaHR0cDovL2NyZWF0aXZlY29tbW9ucy5vcmcvbGljZW5zZXMvcHVibGljZG9tYWluLyIKICAgICAgICA+CiAgICAgICAgPGNjOnBlcm1pdHMKICAgICAgICAgICAgcmRmOnJlc291cmNlPSJodHRwOi8vY3JlYXRpdmVjb21tb25zLm9yZy9ucyNSZXByb2R1Y3Rpb24iCiAgICAgICAgLz4KICAgICAgICA8Y2M6cGVybWl0cwogICAgICAgICAgICByZGY6cmVzb3VyY2U9Imh0dHA6Ly9jcmVhdGl2ZWNvbW1vbnMub3JnL25zI0Rpc3RyaWJ1dGlvbiIKICAgICAgICAvPgogICAgICAgIDxjYzpwZXJtaXRzCiAgICAgICAgICAgIHJkZjpyZXNvdXJjZT0iaHR0cDovL2NyZWF0aXZlY29tbW9ucy5vcmcvbnMjRGVyaXZhdGl2ZVdvcmtzIgogICAgICAgIC8+CiAgICAgIDwvY2M6TGljZW5zZQogICAgICA+CiAgICA8L3JkZjpSREYKICAgID4KICA8L21ldGFkYXRhCiAgPgo8L3N2Zwo+Cg==;" parent="1" vertex="1">
          <mxGeometry x="10" y="10" width="150" height="150" as="geometry" />
        </mxCell>
        <mxCell id="THmwH9JPC7RiWb7a8U4U-2" value="" style="shape=image;aspect=fixed;image=data:image/svg+xml,PD94bWwgdmVyc2lvbj0iMS4wIiBlbmNvZGluZz0iVVRGLTgiIHN0YW5kYWxvbmU9Im5vIj8+CjwhLS0gQ3JlYXRlZCB3aXRoIElua3NjYXBlIChodHRwOi8vd3d3Lmlua3NjYXBlLm9yZy8pIC0tPgo8c3ZnCiAgICB4bWxuczppbmtzY2FwZT0iaHR0cDovL3d3dy5pbmtzY2FwZS5vcmcvbmFtZXNwYWNlcy9pbmtzY2FwZSIKICAgIHhtbG5zOnJkZj0iaHR0cDovL3d3dy53My5vcmcvMTk5OS8wMi8yMi1yZGYtc3ludGF4LW5zIyIKICAgIHhtbG5zPSJodHRwOi8vd3d3LnczLm9yZy8yMDAwL3N2ZyIKICAgIHhtbG5zOmNjPSJodHRwOi8vY3JlYXRpdmVjb21tb25zLm9yZy9ucyMiCiAgICB4bWxuczpkYz0iaHR0cDovL3B1cmwub3JnL2RjL2VsZW1lbnRzLzEuMS8iCiAgICB4bWxuczpzb2RpcG9kaT0iaHR0cDovL3NvZGlwb2RpLnNvdXJjZWZvcmdlLm5ldC9EVEQvc29kaXBvZGktMC5kdGQiCiAgICB4bWxuczpzdmc9Imh0dHA6Ly93d3cudzMub3JnLzIwMDAvc3ZnIgogICAgeG1sbnM6bnMxPSJodHRwOi8vc296aS5iYWllcm91Z2UuZnIiCiAgICB4bWxuczp4bGluaz0iaHR0cDovL3d3dy53My5vcmcvMTk5OS94bGluayIKICAgIGlkPSJzdmcyIgogICAgc29kaXBvZGk6ZG9jbmFtZT0iU3RvcFNpZ24tbm9mb250LnN2ZyIKICAgIHZpZXdCb3g9IjAgMCAyNjkuOTcgMjY5Ljk3IgogICAgdmVyc2lvbj0iMS4xIgogICAgaW5rc2NhcGU6dmVyc2lvbj0iMC40OC4yIHI5ODE5IgogID4KICA8dGl0bGUKICAgICAgaWQ9InRpdGxlMzkwNiIKICAgID5TdG9wIFNpZ248L3RpdGxlCiAgPgogIDxzb2RpcG9kaTpuYW1lZHZpZXcKICAgICAgaWQ9ImJhc2UiCiAgICAgIGZpdC1tYXJnaW4tbGVmdD0iMC4xIgogICAgICBpbmtzY2FwZTp6b29tPSIyLjIzMDQxNjgiCiAgICAgIGJvcmRlcm9wYWNpdHk9IjEuMCIKICAgICAgaW5rc2NhcGU6Y3VycmVudC1sYXllcj0ibGF5ZXIxIgogICAgICBpbmtzY2FwZTpjeD0iMTM0Ljk4NTQyIgogICAgICBpbmtzY2FwZTpjeT0iMTM0Ljk4NTQzIgogICAgICBpbmtzY2FwZTp3aW5kb3ctbWF4aW1pemVkPSIxIgogICAgICBzaG93Z3JpZD0iZmFsc2UiCiAgICAgIGZpdC1tYXJnaW4tcmlnaHQ9IjAuMSIKICAgICAgdW5pdHM9ImluIgogICAgICBpbmtzY2FwZTpkb2N1bWVudC11bml0cz0iaW4iCiAgICAgIGJvcmRlcmNvbG9yPSIjNjY2NjY2IgogICAgICBpbmtzY2FwZTp3aW5kb3cteD0iMCIKICAgICAgaW5rc2NhcGU6d2luZG93LXk9IjI0IgogICAgICBmaXQtbWFyZ2luLWJvdHRvbT0iMC4xIgogICAgICBpbmtzY2FwZTp3aW5kb3ctd2lkdGg9IjEyNzgiCiAgICAgIGlua3NjYXBlOnBhZ2VvcGFjaXR5PSIwLjAiCiAgICAgIGlua3NjYXBlOnBhZ2VzaGFkb3c9IjIiCiAgICAgIHBhZ2Vjb2xvcj0iI2ZmZmZmZiIKICAgICAgaW5rc2NhcGU6d2luZG93LWhlaWdodD0iNzQ3IgogICAgICBmaXQtbWFyZ2luLXRvcD0iMC4xIgogIC8+CiAgPGcKICAgICAgaWQ9ImxheWVyMSIKICAgICAgaW5rc2NhcGU6bGFiZWw9IkxheWVyIDEiCiAgICAgIGlua3NjYXBlOmdyb3VwbW9kZT0ibGF5ZXIiCiAgICAgIHRyYW5zZm9ybT0idHJhbnNsYXRlKC0zNjAuMDEgLTUzNC44OCkiCiAgICA+CiAgICA8ZwogICAgICAgIGlkPSJnMzAzMSIKICAgICAgPgogICAgICA8Zmxvd1Jvb3QKICAgICAgICAgIGlkPSJmbG93Um9vdDI5ODIiCiAgICAgICAgICBzdHlsZT0iZm9udC1zaXplOjEwMi42cHg7Zm9udC1mYW1pbHk6U3RhbmRhcmQgU3ltYm9scyBMO2ZpbGw6IzAwMDAwMDtsZXR0ZXItc3BhY2luZzowcHg7bGluZS1oZWlnaHQ6MTI1JTt3b3JkLXNwYWNpbmc6MHB4IgogICAgICAgICAgeG1sOnNwYWNlPSJwcmVzZXJ2ZSIKICAgICAgICAgIHRyYW5zZm9ybT0idHJhbnNsYXRlKDAgMjg3LjM2KSIKICAgICAgICA+CiAgICAgICAgPGZsb3dSZWdpb24KICAgICAgICAgICAgaWQ9ImZsb3dSZWdpb24yOTg0IgogICAgICAgICAgPgogICAgICAgICAgPHJlY3QKICAgICAgICAgICAgICBpZD0icmVjdDI5ODYiCiAgICAgICAgICAgICAgeT0iMTQyLjkzIgogICAgICAgICAgICAgIHg9IjI0Ni4zOCIKICAgICAgICAgICAgICB3aWR0aD0iNDA1LjY0IgogICAgICAgICAgICAgIGhlaWdodD0iNDE1LjE3IgogICAgICAgICAgLz4KICAgICAgICA8L2Zsb3dSZWdpb24KICAgICAgICA+CiAgICAgICAgPGZsb3dQYXJhCiAgICAgICAgICAgIGlkPSJmbG93UGFyYTI5ODgiCiAgICAgICAgICA+U1MuTy5QLkEuU3RvPC9mbG93UGFyYQogICAgICAgID4KICAgICAgPC9mbG93Um9vdAogICAgICA+CiAgICAgIDxwYXRoCiAgICAgICAgICBpZD0icGF0aDMwMzAiCiAgICAgICAgICBzdHlsZT0iZmlsbDojZTgwODA4IgogICAgICAgICAgc29kaXBvZGk6dHlwZT0ic3RhciIKICAgICAgICAgIGQ9Im00NDMuMzYgNDIwLjctODIuNzU3IDYzLjUwMi0xMDMuNDItMTMuNjE2LTYzLjUwMi04Mi43NTcgMTMuNjE2LTEwMy40MiA4Mi43NTctNjMuNTAyIDEwMy40MiAxMy42MTYgNjMuNTAyIDgyLjc1N3oiCiAgICAgICAgICBzb2RpcG9kaTpyMT0iMTM2LjI5MTA1IgogICAgICAgICAgaW5rc2NhcGU6ZmxhdHNpZGVkPSJ0cnVlIgogICAgICAgICAgdHJhbnNmb3JtPSJtYXRyaXgoLjk5MTI3IC0uMTMxODQgLjEzMTg0IC45OTEyNyAxMjYuMDMgMzYzLjI4KSIKICAgICAgICAgIHNvZGlwb2RpOmFyZzI9IjAuOTE2Mjk3ODYiCiAgICAgICAgICBzb2RpcG9kaTphcmcxPSIwLjUyMzU5ODc4IgogICAgICAgICAgaW5rc2NhcGU6cmFuZG9taXplZD0iMCIKICAgICAgICAgIHNvZGlwb2RpOmN5PSIzNTIuNTUzMzgiCiAgICAgICAgICBzb2RpcG9kaTpjeD0iMzI1LjMyOTE5IgogICAgICAgICAgaW5rc2NhcGU6cm91bmRlZD0iMCIKICAgICAgICAgIHNvZGlwb2RpOnIyPSIxMjUuOTE2NSIKICAgICAgICAgIHNvZGlwb2RpOnNpZGVzPSI4IgogICAgICAvPgogICAgICA8cGF0aAogICAgICAgICAgaWQ9InBhdGgzMDM4IgogICAgICAgICAgc3R5bGU9ImZpbGw6I2ZmZmZmZiIKICAgICAgICAgIHNvZGlwb2RpOnR5cGU9Imlua3NjYXBlOm9mZnNldCIKICAgICAgICAgIGQ9Im0yOTEuMzEgMjI1LjU5LTc5LjgxMiA2MS4yNS0xMy4xMjUgOTkuNzE5IDYxLjI1IDc5Ljg0NCA5OS43MTkgMTMuMDk0IDc5Ljg0NC02MS4yNSAxMy4wOTQtOTkuNzE5LTYxLjI1LTc5LjgxMi05OS43MTktMTMuMTI1eiIKICAgICAgICAgIGlua3NjYXBlOm9yaWdpbmFsPSJNIDI5MC4wNjI1IDIyMC45MDYyNSBMIDIwNy4zMTI1IDI4NC40MDYyNSBMIDE5My42ODc1IDM4Ny44MTI1IEwgMjU3LjE4NzUgNDcwLjU5Mzc1IEwgMzYwLjU5Mzc1IDQ4NC4xODc1IEwgNDQzLjM3NSA0MjAuNjg3NSBMIDQ1Ni45Njg3NSAzMTcuMjgxMjUgTCAzOTMuNDY4NzUgMjM0LjUzMTI1IEwgMjkwLjA2MjUgMjIwLjkwNjI1IHogIgogICAgICAgICAgdHJhbnNmb3JtPSJtYXRyaXgoLjk5MTI3IC0uMTMxODQgLjEzMTg0IC45OTEyNyAxMjYuMDIgMzYzLjI3KSIKICAgICAgICAgIGlua3NjYXBlOnJhZGl1cz0iLTQuNDkwMDA1NSIKICAgICAgLz4KICAgICAgPHBhdGgKICAgICAgICAgIGlkPSJwYXRoMzA0MiIKICAgICAgICAgIHN0eWxlPSJmaWxsOiNlODA4MDgiCiAgICAgICAgICBzb2RpcG9kaTp0eXBlPSJpbmtzY2FwZTpvZmZzZXQiCiAgICAgICAgICBkPSJtMjkyLjQ0IDIyOS44NC03Ny4xMjUgNTkuMTg4LTEyLjY4OCA5Ni40MDYgNTkuMTg4IDc3LjE1NiA5Ni40MDYgMTIuNjU2IDc3LjE1Ni01OS4xODggMTIuNjU2LTk2LjQwNi01OS4xODgtNzcuMTI1LTk2LjQwNi0xMi42ODh6IgogICAgICAgICAgaW5rc2NhcGU6b3JpZ2luYWw9Ik0gMjkwLjA2MjUgMjIwLjkwNjI1IEwgMjA3LjMxMjUgMjg0LjQwNjI1IEwgMTkzLjY4NzUgMzg3LjgxMjUgTCAyNTcuMTg3NSA0NzAuNTkzNzUgTCAzNjAuNTkzNzUgNDg0LjE4NzUgTCA0NDMuMzc1IDQyMC42ODc1IEwgNDU2Ljk2ODc1IDMxNy4yODEyNSBMIDM5My40Njg3NSAyMzQuNTMxMjUgTCAyOTAuMDYyNSAyMjAuOTA2MjUgeiAiCiAgICAgICAgICB0cmFuc2Zvcm09Im1hdHJpeCguOTkxMjcgLS4xMzE4NCAuMTMxODQgLjk5MTI3IDEyNi4wMiAzNjMuMjcpIgogICAgICAgICAgaW5rc2NhcGU6cmFkaXVzPSItOC41Mjg5MzkyIgogICAgICAvPgogICAgICA8ZwogICAgICAgICAgaWQ9ImZsb3dSb290MzAwNCIKICAgICAgICAgIHN0eWxlPSJmaWxsOiNmZmZmZmYiCiAgICAgICAgICB0cmFuc2Zvcm09InRyYW5zbGF0ZSgyMDUuNTcgNDIxLjk0KSIKICAgICAgICA+CiAgICAgICAgPHBhdGgKICAgICAgICAgICAgaWQ9InBhdGgzMDI4IgogICAgICAgICAgICBzdHlsZT0iIgogICAgICAgICAgICBkPSJtMzQ1Ljg0IDIwNy4zN2gyMS4yNDJjNS43NDQ2IDAuMDAwMDggMTAuMTUzIDAuNDUwOTcgMTMuMjI2IDEuMzUyNyAzLjEwNjEgMC45MDE4NSA1LjQyNzMgMi4yMDQ0IDYuOTYzNyAzLjkwNzcgMS41Njk3IDEuNzAzNCAyLjYyMTggMy43NzQyIDMuMTU2MiA2LjIxMjIgMC41Njc3NCAyLjQwNDggMC44NTE2MyA2LjE0NTUgMC44NTE2OCAxMS4yMjJ2Ny4wNjM5Yy0wLjAwMDA1IDUuMTc2OS0wLjUzNDQzIDguOTUxLTEuNjAzMiAxMS4zMjItMS4wNjg4IDIuMzcxNC0zLjAzOTQgNC4xOTE2LTUuOTExNiA1LjQ2MDgtMi44MzkgMS4yNjkyLTYuNTYzIDEuOTAzOC0xMS4xNzIgMS45MDM4aC01LjY2MTJ2MzIuNjY0aC0yMS4wOTJ2LTgxLjExbTIxLjA5MiAxMy44Nzd2MjAuNjQxYzAuNjAxMTYgMC4wMzM0IDEuMTE4OCAwLjA1MDIgMS41NTMxIDAuMDUwMSAxLjkzNzEgMC4wMDAwNSAzLjI3MzEtMC40Njc1NCA0LjAwNzktMS40MDI4IDAuNzY4MTUtMC45Njg1MyAxLjE1MjItMi45NTU4IDEuMTUyMy01Ljk2MTh2LTYuNjYzMWMtMC4wMDAwMy0yLjc3MjEtMC40MzQyMi00LjU3NTYtMS4zMDI2LTUuNDEwNy0wLjg2ODQxLTAuODM0OTItMi42NzItMS4yNTI0LTUuNDEwNy0xLjI1MjVtLTI5LjAwNyAzMy42MTZjLTAuMDAwMDUgOC4xNDk0LTAuMjAwNDUgMTMuOTI3LTAuNjAxMTggMTcuMzM0LTAuMzY3NDUgMy4zNzMzLTEuNTY5OCA2LjQ2MjgtMy42MDcxIDkuMjY4My0yLjAwNCAyLjgwNTUtNC43MjYgNC45NTk4LTguMTY2MSA2LjQ2MjctMy40NDAyIDEuNTAzLTcuNDQ4IDIuMjU0NC0xMi4wMjQgMi4yNTQ0LTQuMzQxOSAwLTguMjQ5Ni0wLjcwMTM5LTExLjcyMy0yLjEwNDItMy40NDAxLTEuNDM2Mi02LjIxMjMtMy41NzM3LTguMzE2NC02LjQxMjYtMi4xMDQyLTIuODM4OS0zLjM1NjYtNS45MjgzLTMuNzU3NC05LjI2ODMtMC40MDA4LTMuMzM5OS0wLjYwMTE5LTkuMTg0OC0wLjYwMTE5LTE3LjUzNXYtMTMuODc3YzAtOC4xNDk0IDAuMTgzNjktMTMuOTExIDAuNTUxMDktMTcuMjg0IDAuNDAwNzgtMy40MDY2IDEuNjAzMi02LjUxMjggMy42MDcxLTkuMzE4NCAyLjAzNzMtMi44MDU1IDQuNzc2MS00Ljk1OTcgOC4yMTYyLTYuNDYyNyAzLjQ0MDEtMS41MDI5IDcuNDQ4LTIuMjU0NCAxMi4wMjQtMi4yNTQ0IDQuMzQxOSAwLjAwMDA5IDguMjMyOSAwLjcxODE3IDExLjY3MyAyLjE1NDIgMy40NzM1IDEuNDAyOCA2LjI2MjMgMy41MjM3IDguMzY2NSA2LjM2MjUgMi4xMDQxIDIuODM5IDMuMzU2NiA1LjkyODQgMy43NTc0IDkuMjY4MyAwLjQwMDczIDMuMzQgMC42MDExMyA5LjE4NDggMC42MDExOCAxNy41MzV2MTMuODc3bS0yMS4wOTItMjYuNjUzYy0wLjAwMDAzLTMuNzc0LTAuMjE3MTItNi4xNzg4LTAuNjUxMjgtNy4yMTQyLTAuNDAwODItMS4wNjg3LTEuMjUyNS0xLjYwMzEtMi41NTUtMS42MDMyLTEuMTAyMiAwLjAwMDA3LTEuOTUzOSAwLjQzNDI2LTIuNTU1IDEuMzAyNi0wLjU2NzgxIDAuODM1MDUtMC44NTE3MSAzLjM0LTAuODUxNjggNy41MTQ4djM3Ljg3NWMtMC4wMDAwMyA0LjcwOTMgMC4xODM2NyA3LjYxNSAwLjU1MTA5IDguNzE3MiAwLjQwMDc2IDEuMTAyMiAxLjMwMjUgMS42NTMzIDIuNzA1MyAxLjY1MzMgMS40MzYxIDAuMDAwMDEgMi4zNTQ2LTAuNjM0NTcgMi43NTU0LTEuOTAzOCAwLjQwMDc2LTEuMjY5MiAwLjYwMTE1LTQuMjkxOCAwLjYwMTE4LTkuMDY3OXYtMzcuMjczbS0zMS45MTMtMjAuODQxdjE2LjIzMmgtMTIuNTI1djY0Ljg3OGgtMjEuMDkydi02NC44NzhoLTEyLjQ3NXYtMTYuMjMyaDQ2LjA5MW0tNTAuOSAyNC41NDhoLTE5LjU4OXYtNi4wMTE4Yy0wLjAwMDAzLTIuODA1NS0wLjI1MDUyLTQuNTkyMy0wLjc1MTQ4LTUuMzYwNi0wLjUwMTAxLTAuNzY4MTEtMS4zMzYtMS4xNTIyLTIuNTA0OS0xLjE1MjMtMS4yNjkyIDAuMDAwMDctMi4yMzc4IDAuNTE3NzYtMi45MDU3IDEuNTUzMS0wLjYzNDYxIDEuMDM1NC0wLjk1MTkgMi42MDUyLTAuOTUxODggNC43MDkzLTAuMDAwMDIgMi43MDU0IDAuMzY3MzcgNC43NDI3IDEuMTAyMiA2LjExMiAwLjcwMTM2IDEuMzY5NCAyLjY4ODYgMy4wMjI3IDUuOTYxOCA0Ljk1OTggOS4zODUxIDUuNTc3NyAxNS4yOTcgMTAuMTUzIDE3LjczNSAxMy43MjcgMi40MzgxIDMuNTczOCAzLjY1NzIgOS4zMzUxIDMuNjU3MiAxNy4yODQtMC4wMDAwNSA1Ljc3ODEtMC42ODQ3MyAxMC4wMzYtMi4wNTQgMTIuNzc1LTEuMzM2IDIuNzM4Ny0zLjk0MTIgNS4wNDMzLTcuODE1NCA2LjkxMzYtMy44NzQzIDEuODM3LTguMzgzMiAyLjc1NTQtMTMuNTI3IDIuNzU1NC01LjY0NDUgMC0xMC40NzEtMS4wNjg4LTE0LjQ3OS0zLjIwNjMtMy45NzQ1LTIuMTM3Ni02LjU3OTYtNC44NTk2LTcuODE1NC04LjE2NjFzLTEuODUzNy03Ljk5OTEtMS44NTM3LTE0LjA3OHYtNS4zMTA1aDE5LjU4OXY5Ljg2OTVjLTAuMDAwMDMgMy4wMzkzIDAuMjY3MTcgNC45OTMyIDAuODAxNTggNS44NjE2IDAuNTY3NzYgMC44NjgzOSAxLjU1MyAxLjMwMjYgMi45NTU4IDEuMzAyNiAxLjQwMjcgMC4wMDAwMSAyLjQzODEtMC41NTEwOCAzLjEwNjEtMS42NTMzIDAuNzAxMzUtMS4xMDIyIDEuMDUyLTIuNzM4NyAxLjA1MjEtNC45MDk3LTAuMDAwMDMtNC43NzYxLTAuNjUxMzEtNy44OTg5LTEuOTUzOC05LjM2ODUtMS4zMzYtMS40Njk1LTQuNjI1OC0zLjkyNDQtOS44Njk1LTcuMzY0NS01LjI0MzctMy40NzM1LTguNzE3Mi01Ljk5NTEtMTAuNDIxLTcuNTY0OS0xLjcwMzQtMS41Njk3LTMuMTIyOC0zLjc0MDctNC4yNTg0LTYuNTEyOC0xLjEwMjItMi43NzIxLTEuNjUzMy02LjMxMjQtMS42NTMzLTEwLjYyMSAwLTYuMjEyMiAwLjc4NDg4LTEwLjc1NCAyLjM1NDYtMTMuNjI3IDEuNjAzMi0yLjg3MjMgNC4xNzQ5LTUuMTEgNy43MTUyLTYuNzEzMiAzLjU0MDMtMS42MzY1IDcuODE1NC0yLjQ1NDggMTIuODI1LTIuNDU0OCA1LjQ3NzQgMC4wMDAwOSAxMC4xMzcgMC44ODUxNiAxMy45NzggMi42NTUyIDMuODc0MyAxLjc3MDIgNi40MjkzIDQuMDA4IDcuNjY1MSA2LjcxMzIgMS4yNjkxIDIuNjcyIDEuOTAzNyA3LjIzMSAxLjkwMzggMTMuNjc3djMuMjA2MyIKICAgICAgICAvPgogICAgICA8L2cKICAgICAgPgogICAgPC9nCiAgICA+CiAgPC9nCiAgPgogIDxtZXRhZGF0YQogICAgPgogICAgPHJkZjpSREYKICAgICAgPgogICAgICA8Y2M6V29yawogICAgICAgID4KICAgICAgICA8ZGM6Zm9ybWF0CiAgICAgICAgICA+aW1hZ2Uvc3ZnK3htbDwvZGM6Zm9ybWF0CiAgICAgICAgPgogICAgICAgIDxkYzp0eXBlCiAgICAgICAgICAgIHJkZjpyZXNvdXJjZT0iaHR0cDovL3B1cmwub3JnL2RjL2RjbWl0eXBlL1N0aWxsSW1hZ2UiCiAgICAgICAgLz4KICAgICAgICA8Y2M6bGljZW5zZQogICAgICAgICAgICByZGY6cmVzb3VyY2U9Imh0dHA6Ly9jcmVhdGl2ZWNvbW1vbnMub3JnL2xpY2Vuc2VzL3B1YmxpY2RvbWFpbi8iCiAgICAgICAgLz4KICAgICAgICA8ZGM6cHVibGlzaGVyCiAgICAgICAgICA+CiAgICAgICAgICA8Y2M6QWdlbnQKICAgICAgICAgICAgICByZGY6YWJvdXQ9Imh0dHA6Ly9vcGVuY2xpcGFydC5vcmcvIgogICAgICAgICAgICA+CiAgICAgICAgICAgIDxkYzp0aXRsZQogICAgICAgICAgICAgID5PcGVuY2xpcGFydDwvZGM6dGl0bGUKICAgICAgICAgICAgPgogICAgICAgICAgPC9jYzpBZ2VudAogICAgICAgICAgPgogICAgICAgIDwvZGM6cHVibGlzaGVyCiAgICAgICAgPgogICAgICAgIDxkYzp0aXRsZQogICAgICAgICAgPlN0b3AgU2lnbjwvZGM6dGl0bGUKICAgICAgICA+CiAgICAgICAgPGRjOmRhdGUKICAgICAgICAgID4yMDEyLTAxLTE1VDE2OjM4OjQ2PC9kYzpkYXRlCiAgICAgICAgPgogICAgICAgIDxkYzpkZXNjcmlwdGlvbgogICAgICAgICAgPlN0b3AgU2lnbjwvZGM6ZGVzY3JpcHRpb24KICAgICAgICA+CiAgICAgICAgPGRjOnNvdXJjZQogICAgICAgICAgPmh0dHBzOi8vb3BlbmNsaXBhcnQub3JnL2RldGFpbC8xNjcwOTMvc3RvcC1zaWduLWJ5LWRhdmlkYmx5b25zPC9kYzpzb3VyY2UKICAgICAgICA+CiAgICAgICAgPGRjOmNyZWF0b3IKICAgICAgICAgID4KICAgICAgICAgIDxjYzpBZ2VudAogICAgICAgICAgICA+CiAgICAgICAgICAgIDxkYzp0aXRsZQogICAgICAgICAgICAgID5kYXZpZGJseW9uczwvZGM6dGl0bGUKICAgICAgICAgICAgPgogICAgICAgICAgPC9jYzpBZ2VudAogICAgICAgICAgPgogICAgICAgIDwvZGM6Y3JlYXRvcgogICAgICAgID4KICAgICAgICA8ZGM6c3ViamVjdAogICAgICAgICAgPgogICAgICAgICAgPHJkZjpCYWcKICAgICAgICAgICAgPgogICAgICAgICAgICA8cmRmOmxpCiAgICAgICAgICAgICAgPlN0b3AgU2lnbjwvcmRmOmxpCiAgICAgICAgICAgID4KICAgICAgICAgIDwvcmRmOkJhZwogICAgICAgICAgPgogICAgICAgIDwvZGM6c3ViamVjdAogICAgICAgID4KICAgICAgPC9jYzpXb3JrCiAgICAgID4KICAgICAgPGNjOkxpY2Vuc2UKICAgICAgICAgIHJkZjphYm91dD0iaHR0cDovL2NyZWF0aXZlY29tbW9ucy5vcmcvbGljZW5zZXMvcHVibGljZG9tYWluLyIKICAgICAgICA+CiAgICAgICAgPGNjOnBlcm1pdHMKICAgICAgICAgICAgcmRmOnJlc291cmNlPSJodHRwOi8vY3JlYXRpdmVjb21tb25zLm9yZy9ucyNSZXByb2R1Y3Rpb24iCiAgICAgICAgLz4KICAgICAgICA8Y2M6cGVybWl0cwogICAgICAgICAgICByZGY6cmVzb3VyY2U9Imh0dHA6Ly9jcmVhdGl2ZWNvbW1vbnMub3JnL25zI0Rpc3RyaWJ1dGlvbiIKICAgICAgICAvPgogICAgICAgIDxjYzpwZXJtaXRzCiAgICAgICAgICAgIHJkZjpyZXNvdXJjZT0iaHR0cDovL2NyZWF0aXZlY29tbW9ucy5vcmcvbnMjRGVyaXZhdGl2ZVdvcmtzIgogICAgICAgIC8+CiAgICAgIDwvY2M6TGljZW5zZQogICAgICA+CiAgICA8L3JkZjpSREYKICAgID4KICA8L21ldGFkYXRhCiAgPgo8L3N2Zwo+Cg==;" parent="1" vertex="1">
          <mxGeometry x="500" y="10" width="150" height="150" as="geometry" />
        </mxCell>
        <mxCell id="THmwH9JPC7RiWb7a8U4U-3" value="!!!&amp;nbsp; &amp;nbsp; &amp;nbsp;In lab checkin point&amp;nbsp; &amp;nbsp; !!!" style="text;html=1;strokeColor=none;fillColor=none;align=center;verticalAlign=middle;whiteSpace=wrap;rounded=0;fontSize=19;fontStyle=1" parent="1" vertex="1">
          <mxGeometry x="180" y="30" width="300" height="30" as="geometry" />
        </mxCell>
        <mxCell id="THmwH9JPC7RiWb7a8U4U-4" value="Students working beyond without checking in with the instructor or lab team risk loosing or needing to redo existing work!" style="text;html=1;strokeColor=none;fillColor=none;align=center;verticalAlign=middle;whiteSpace=wrap;rounded=0;fontSize=12;" parent="1" vertex="1">
          <mxGeometry x="180" y="75" width="300" height="75" as="geometry" />
        </mxCell>
        <mxCell id="IzIWpIavSMxpUYo8vTc6-1" value="" style="curved=1;endArrow=classic;html=1;rounded=0;" edge="1" parent="1">
          <mxGeometry width="50" height="50" relative="1" as="geometry">
            <mxPoint x="240" y="240" as="sourcePoint" />
            <mxPoint x="160" y="240" as="targetPoint" />
            <Array as="points">
              <mxPoint x="240" y="300" />
              <mxPoint x="200" y="320" />
              <mxPoint x="160" y="300" />
            </Array>
          </mxGeometry>
        </mxCell>
        <mxCell id="IzIWpIavSMxpUYo8vTc6-2" value="" style="rhombus;whiteSpace=wrap;html=1;" vertex="1" parent="1">
          <mxGeometry x="20" y="160" width="140" height="140" as="geometry" />
        </mxCell>
      </root>
    </mxGraphModel>
  </diagram>
</mxfile>
